# xmcd CD database file
#
# Track frame offsets:
#	150
#	14845
#	39620
#	53682
#	69622
#	98767
#	121092
#	136687
#	160655
#	173925
#	198902
#	214857
#	241982
#	253672
#	271545
#	296997
#	320372
#	334262
#
# Disc length: 4711 seconds
#
# Revision: 0
# Processed by: cddbd v1.5.1PL2 Copyright (c) Steve Scherf et al.
# Submitted via: CDex 1.51
#
DISCID=05126512
DTITLE=Various Artist - White Roots
DYEAR=1996
DGENRE=Country
TTITLE0=Elvis Presley - Good Time Charlie's Got The Blues
TTITLE1=Bob Dylan - Queen Jane Approx
TTITLE2=Van Morrison - Brown Eyed Girl
TTITLE3=The Byrds - Hickory Wind
TTITLE4=Flying Burrito Bros - Wild Horses
TTITLE5=Gram Parsons - A Song For You
TTITLE6=Emmylou Harris - Sleepless Nights
TTITLE7=Crazy Horse - I Don't Want To Talk About It
TTITLE8=Little Feat - Willin'
TTITLE9=Rod Stewart - Mandolin Wind
TTITLE10=Barry Maguire - Eve Of Destruction
TTITLE11=Tim Buckley - Buzzin' Fly
TTITLE12=Buffalo Springfield - For What It's Worth
TTITLE13=Golden Smog - She Don't Have To See You
TTITLE14=Leonard Cohen - So Long, Marianne
TTITLE15=Steve Earle - The Other Kind
TTITLE16=Paul Weller - I Shall Be Released
TTITLE17=Cowboy Junkies - 'Cause Sheap Is How I Feel
EXTD=YEAR: 1996
EXTT0=
EXTT1=
EXTT2=
EXTT3=
EXTT4=
EXTT5=
EXTT6=
EXTT7=
EXTT8=
EXTT9=
EXTT10=
EXTT11=
EXTT12=
EXTT13=
EXTT14=
EXTT15=
EXTT16=
EXTT17=
PLAYORDER=
